<svg width="100" height="82" fill="none" xmlns="http://www.w3.org/2000/svg"><path d="M40.64.001c1.064-.014 8.425.243 12.983 8.962h5.302a3.964 3.964 0 013.7 2.537l.003.008.007.016.022.06.085.225a98.607 98.607 0 01.835 2.364h4.792c1.596 0 3.037.957 3.654 2.424l13.708-14.82 7.978 7.779-13.132 11.678 14.568-9.38L100 20.89l-15.62 8.768c2.076 2.066 3.328 4.497 3.328 7.181 0 14.78-9.464 27.522-23.122 33.985v3.821c0 3.72-3.057 6.703-6.779 6.703H29.819c-3.722 0-6.78-2.983-6.78-6.703v-3.86C11.588 65.337 3.11 55.486.695 43.698a34.146 34.146 0 01-.691-6.435L0 36.84c0-3.778 2.476-7.054 6.248-9.519 1.248-.814 2.676-1.572 4.252-2.269C8.376 14.456 2.884 6.181 2.864 6.15a3.997 3.997 0 01-.132-.21l-.009-.016v-.001l.001.002a4.185 4.185 0 01-.04-.07l-.007-.014a3.997 3.997 0 01-.035-.066L2.64 5.77l-.01-.02-.032-.063-.013-.027-.001-.003v.003l-.027-.06a3.814 3.814 0 01-.012-.027c-.009-.02-.02-.042-.03-.067l-.007-.019-.002-.004-.025-.059-.013-.034a4.478 4.478 0 01-.024-.063l-.01-.025-.021-.064a2.997 2.997 0 01-.007-.02l-.003-.007v-.003l-.021-.063-.009-.028v-.003c-.006-.016-.013-.038-.02-.064l-.006-.022-.001-.005-.02-.07-.006-.027a4.107 4.107 0 01-.015-.06l-.012-.05-.003-.014-.006-.03-.01-.05-.01-.05-.006-.037v-.003c-.002-.004-.006-.03-.01-.058L2.24 4.53l-.007-.051-.006-.048-.006-.05-.005-.044a4.252 4.252 0 01-.005-.062l-.002-.024v-.01l-.004-.053-.003-.055v-.002a3.76 3.76 0 01-.001-.031v-.007L2.2 4.037v-.002-.028-.052c0-.664.165-1.295.458-1.848l.007-.013.005-.008v-.001l.023-.042.03-.053.002-.004.007-.012A3.95 3.95 0 014.02.628s.002 0 .003-.002L4.034.62h.002l.057-.036.028-.017V.565l.057-.033.027-.016h.001l.05-.028.039-.021.046-.024.048-.025h.002l.006-.004.024-.012.063-.03L4.51.36l.056-.025.038-.017c.022-.01.041-.017.052-.021l.04-.017.045-.017.004-.001.01-.004.032-.012.04-.015.011-.004.01-.003.029-.01.051-.017.014-.005.028-.009.057-.017.037-.011.053-.015.014-.004.03-.008.035-.009.016-.004h.004l.008-.003.03-.007.052-.011.044-.01.057-.011h-.003.005l.032-.007.065-.011h.002l.029-.006.07-.01.022-.003a3.99 3.99 0 01.073-.01l.019-.001h.005l.001-.001a4.178 4.178 0 01.095-.01h.01L5.887.01l.04-.002.062-.004h.024C6.057.001 6.108 0 6.163 0H40.64v.001zm0 2.234H6.163a1.76 1.76 0 00-.077.002l-.027.001h-.017l-.024.003L6 2.242l-.029.003-.01.002-.033.004-.009.001-.03.004-.014.003-.028.005-.015.002-.025.006-.02.004-.022.005-.019.004-.021.006-.02.005-.023.006-.016.005-.024.007-.04.014-.016.005-.024.009-.02.007-.02.008-.017.007-.023.01-.016.007a1.623 1.623 0 00-.063.029l-.014.007a1.647 1.647 0 00-.021.01l-.02.011-.017.01a1.812 1.812 0 00-.035.019l-.024.015-.013.007-.025.016-.007.004-.02.014c-.231.152-.413.35-.543.574l-.002.005-.014.025-.01.018-.005.01c-.127.239-.199.512-.2.801v.02l.001.016v.025l.002.017.002.047.002.015c0 .009 0 .018.002.027l.002.019.003.022.002.02.003.023.003.018.004.025.003.018.004.021.005.022c0 .006.003.013.004.02l.005.021.006.025.003.012.008.03.004.012.008.027.004.014.01.028.003.012.01.028.004.011.01.027.006.015.01.025.005.01.013.03.005.011.012.026.006.012.019.037.015.03.003.006.017.03.004.006.058.093c.009.013 6.379 9.562 8.297 21.515-2.159.843-4.026 1.772-5.55 2.767-3.344 2.185-5.122 4.767-5.23 7.394l-.005.255a32.002 32.002 0 00.649 6.41c2.34 11.428 10.825 21.045 22.39 26.099v5.296c0 2.456 2.027 4.468 4.545 4.468h27.988c2.518 0 4.544-2.012 4.544-4.468v-5.26C76.07 63.424 85.473 51.05 85.473 36.84c0-2.665-1.718-5.295-5.048-7.524l16.568-9.3-2.672-4.973-18.436 11.87a45.378 45.378 0 00-3.548-1.335l-.002-.005L90.43 9.48l-4.617-4.502-14.721 15.917c-.62-2.066-1.101-3.363-1.101-3.363a1.729 1.729 0 00-1.622-1.125h-6.407c-.812-2.52-1.415-4.086-1.422-4.104a1.73 1.73 0 00-1.615-1.106h-6.703C48.175 2.131 41.007 2.224 40.64 2.235zM2.504 5.478l.002.005-.003-.007v.002zM4.927.197h-.003.004z" fill="#FFEEDC"/><path d="M30.84 70.385h29.501v7.151h-29.5v-7.151z" fill="#FFEEDC"/><path d="M20.788 48.264l-10.181-3.772-1.009-.484-4.234-1.558 1.512 4.707 8.67 14.812 11.795 6.575 15.66 2.734 19.423-2.734 7.897-5.502 9.61-9.69 4.1-13.808-6.485 4.948-12.467 4.222-23.893 1.87-20.398-2.32z" fill="#FFEEDC"/><path d="M80.411 53.494l-.036.12-.088.09-9.611 9.69-.032.032-.038.026-7.896 5.503-.098.068-.119.017-19.423 2.734-.078.01-.077-.013-15.66-2.734-.083-.014-.074-.042-11.914-6.642-.069-.118-8.67-14.811-.028-.048-1.528-4.759-.315-.976 5.197 1.912.022.007.022.011.993.477 10.1 3.74 20.285 2.307 23.782-1.86 12.332-4.176 7.64-5.83-4.536 15.279zM77.85 44.89l-.065.05-.078.026-12.467 4.222-.06.02-23.953 1.873-.048.004-.048-.005-20.458-2.326-.057-.021-10.182-3.772-.022-.008-.021-.01-.988-.475-3.249-1.195 1.183 3.68 8.572 14.645 11.603 6.468 15.5 2.706 19.224-2.706 7.763-5.41 9.49-9.567 3.626-12.217-5.265 4.018z" fill="#000"/><path fill-rule="evenodd" clip-rule="evenodd" d="M15.445 26.111l-8.09 4.97-3.338 8.025 5.695 4.914 26.044 5.897 12.504.382 22.714-3.33 10.835-6.116 2.269-3.822-5.897-6.934-2.948-1.687-28.884-4.319-18.073-2.24-12.831 4.26z" fill="#3C1D19"/><path fill-rule="evenodd" clip-rule="evenodd" d="M68.008 17.65s1.526 7.667 3.138 9.247c.194 1.064-.136.526-.514 1.811l.051.5h-1.092l-6.005-1.185-5.46-.055-3.93-1.364-3.548-.765-11.96-3.439-7.312.819-7.752 1.146-8.516 3.603L7.355 4.821l9.718-1.42 14.97-.109 9.597-.272 4.094 2.402 3.603 3.767 2.62 4.094 6.606-.546 2.239 5.35 7.206-.437z" fill="#FFEEDC"/><path fill-rule="evenodd" clip-rule="evenodd" d="M19.321 46.078c-.156.003-.313.005-.47.005-8.187 0-14.834-4.085-14.834-9.117 0-4.79 6.026-8.724 13.67-9.089 2.063-3.512 7.537-6.025 13.96-6.025 1.169 0 2.306.083 3.398.24 1.092-.157 2.23-.24 3.399-.24 6.892 0 14.13 2.513 15.792 6.43 2.178-.772 3.895 0 6.587 0 2.683 0 4.573-.394 6.746.373.18-.004.362-.006.544-.006 8.187 0 14.834 4.085 14.834 9.117 0 3.644-3.486 6.791-8.519 8.25-2.716 1.857-6.654 3.026-11.033 3.026-.239 0-.475-.004-.71-.01-2.226.818-4.828 1.29-7.607 1.29-1.86 0-3.64-.212-5.28-.596-2.24.834-4.867 1.315-7.676 1.315-2.88 0-5.57-.506-7.846-1.38-.954.118-1.94.18-2.95.18-4.933 0-9.307-1.483-12.005-3.763z" fill="#EFB877"/><path fill-rule="evenodd" clip-rule="evenodd" d="M56.792 38.642s7.861-.603 14.727 6.656l-.917.55s-8.726-6.42-13.679-5.11l-.131-2.096zM30.02 38.446s7.094-2.656 14.825 4.89l4.009-1.65s-5.791-9.928-15.959-5.24l-2.875 2zM9.578 35.777s2.575 11.058 30.083 12.185l-.138 1.258s-21.488 1.44-33.437-9.617l.97-2.438 2.522-1.388z" fill="#DA7930"/><path fill-rule="evenodd" clip-rule="evenodd" d="M62.745 30.055s10.088 1.888 17.634 10.352l1.43-1.144s-9.656-9.784-19.064-9.208zM62.95 47.083s-3.918-3.516-12.84-3.207l1.919-1.006 7.366-.014 5.286 1.181 2.55 1.811.308 1.034s-1.127.12-1.865.227c-.738.108-1.905.336-1.905.336l-.819-.362zM29.398 23.843s10.208-1.138 18.174 3.815l3.905.236-1.494-2.463-7.206-3.224s-8.622-.45-8.91-.565c-.288-.116-4.47 2.2-4.47 2.2z" fill="#F5E1BE"/><path fill-rule="evenodd" clip-rule="evenodd" d="M51.677 14.357s3.132 7.451 5.334 12.448l-2.504-13.251-2.83.803zM32.955 71.286s-.9 2.996.469 5.293l-4 .174-2.864-2.802.22-5.02 2.274.317 3.901 2.038zM60.554 18.354s2.448 5.06 4.65 10.056l-1.82-10.86-2.83.804z" fill="#DA7930"/><path fill-rule="evenodd" clip-rule="evenodd" d="M34.823 30.004s11.825.819 17.623 10.547l4.029.361-4.455-5.47-5.83-5.078s-7.534-1.867-8.615-1.801c-1.081.065-2.752 1.441-2.752 1.441zM65.31 37.625s6.337 2.554 8.644 6.642l2.494-.608-1.027-2.18-5.807-3.396-3.186-1.3-1.118.842z" fill="#F5E1BE"/><path fill-rule="evenodd" clip-rule="evenodd" d="M12.07 45.667s4.064 22.25 33.287 24.092l-6.443 1.092-11.275-3.412-9.434-4.641-5.139-5.324L8.771 51.4l-2.915-6.962-.153-3.071 6.366 4.3z" fill="#DA7930"/><path fill-rule="evenodd" clip-rule="evenodd" d="M47.03 14.142s4.411 6.376 5.765 12.054l1.267-.568-1.66-7.512-2.27-4.585-3.102.611z" fill="#F5E1BE"/><path fill-rule="evenodd" clip-rule="evenodd" d="M67.328 53.279a1.724 1.724 0 012.915 1.839S66.25 61.594 55.85 64.51a1.724 1.724 0 01-.93-3.32c8.903-2.496 12.408-7.911 12.408-7.911z" fill="#3C1D19"/><path fill-rule="evenodd" clip-rule="evenodd" d="M14.637 23.248s10.154-6.005 25.276-2.675L15.8 26.986l-1.162-3.738z" fill="#DA7930"/><path fill-rule="evenodd" clip-rule="evenodd" d="M17.903 24.835c3.648-2.223 7.87-3.991 12.605-4.695 6.245-.928 11.464.068 15.383 1.502 3.459 1.265 5.905 2.873 7.148 3.8.618.462.939.756.939.756.034.03.067.063.098.096 1.8-.153 3.826-.184 6.05-.014 5.985.938 11.144 2.378 15.007 4.171 2.19 1.017 3.945 2.136 5.14 3.356.954.975 1.535 1.986 1.535 3.07 0 .81-.325 1.58-.888 2.323a1.732 1.732 0 01-.09-.128s-4.026-6.082-15.764-8.595c-7.328-1.569-12.977-.738-16.017.195.952.628 1.831 1.29 2.635 1.956 3.11-.209 7.288-.116 11.484.843 8.857 2.025 12.608 5.744 15.277 7.983-.917.63-1.99 1.228-3.2 1.796-2.385-2.044-5.867-4.824-12.845-6.419-2.505-.572-5.002-.805-7.225-.843 1.799 2.001 2.732 3.522 2.732 3.522.126.207.204.43.236.655 6.234 1.02 10.142 3.268 12.333 4.93-1.39.447-2.878.858-4.451 1.23-2.286-1.238-5.573-2.465-10.095-2.99-6.21-.72-10.753 2.91-13.05 5.345-1.477-.011-2.933-.05-4.366-.115.748-1.023 3.554-4.577 8-6.833a12.92 12.92 0 00-4.372-3.469c-5.582 3.339-9.527 7.551-11.318 9.675a92.01 92.01 0 01-3.947-.555c.022-.035.044-.069.069-.102 0 0 3.967-5.517 10.834-10.298-.28-.036-.565-.064-.858-.085-3.443-.245-6.6 1.416-9.178 3.423-2.684 2.09-4.754 4.595-5.868 6.082a62.449 62.449 0 01-3.57-.934c.805-1.175 3.506-4.898 7.321-7.868 3.226-2.511 7.23-4.448 11.54-4.14 7.332.522 11.192 4.825 12.674 6.965a16.678 16.678 0 014.064-.622c-2.471-3.214-9.195-10.42-19.437-9.827-12.072 1.498-19.039 11.007-20.865 13.84-.401-.168-.79-.34-1.168-.515a26.604 26.604 0 01-1.948-.998c1.77-2.81 9.661-14.052 23.616-15.754l.105-.01c4.186-.253 7.865.62 11 2.018.695-.409 2.088-.998 4.076-1.49a26.096 26.096 0 00-4.054-1.99c-3.517-1.367-8.356-2.4-14.215-1.529-4.45.661-8.4 2.355-11.793 4.474-5.804 3.623-9.984 8.49-12.261 11.561-.754-.863-1.201-1.757-1.201-2.707 0-.936.434-1.818 1.167-2.668l.131-.15c2.655-2.994 6.307-6.46 10.845-9.224z" fill="#3C1D19"/><path fill-rule="evenodd" clip-rule="evenodd" d="M70.16 24.977c4.046 1.183 7.415 2.626 9.88 4.243 3.44 2.259 5.216 4.94 5.216 7.657 0 20.002-18.522 36.366-41.47 36.366-20.439 0-37.366-12.98-40.825-29.948a32.064 32.064 0 01-.647-6.418c0-2.718 1.777-5.399 5.218-7.657 1.83-1.201 4.16-2.307 6.897-3.281 1.095-.39 1.33.275.338 1.01-3.11 2.3-5.695 4.841-7.708 7.11l-.131.15c-.733.85-1.167 1.732-1.167 2.668 0 .95.447 1.844 1.2 2.707.107.121.219.242.336.362.816.834 1.893 1.62 3.19 2.358.604.343 1.255.676 1.95.998.377.175.766.347 1.167.515a45.449 45.449 0 004.704 1.652c1.134.334 2.326.646 3.57.934 1.586.367 3.257.695 5 .98 1.279.209 2.596.394 3.947.556 2.46.293 5.033.505 7.69.626a115.271 115.271 0 005.27.119c8.268 0 15.938-.867 22.24-2.359a59.279 59.279 0 004.452-1.23 40.47 40.47 0 004.77-1.845c1.209-.568 2.282-1.166 3.2-1.796a12.284 12.284 0 001.826-1.508c.241-.246.459-.494.649-.746.562-.744.888-1.513.888-2.323 0-1.084-.582-2.095-1.537-3.07-1.194-1.22-2.948-2.339-5.139-3.356a40.154 40.154 0 00-4.501-1.743l-.331-3.251-.142-.48zm10.783 18.925c-.287.214-.589.425-.904.631-6.799 4.463-20.479 7.597-36.254 7.597-15.775 0-29.455-3.134-36.254-7.597a18.685 18.685 0 01-.903-.63c3.724 14.84 19 25.893 37.157 25.893 18.158 0 33.434-11.054 37.158-25.894z" fill="#3C1D19"/><path fill-rule="evenodd" clip-rule="evenodd" d="M35.145 5.221l1.993 6.648a5.631 5.631 0 005.697 4.006l7.63-.41-.649-2.036-3.913.403-4.72-.067-1.207-3.243-1.767-5.569-3.064.268z" fill="#DA7930"/><path fill-rule="evenodd" clip-rule="evenodd" d="M40.776 5.67s4.38 1.49 5.84 5.954l3.277.272-1.732-2.933-2.676-2.133-3.149-1.302-1.56.143z" fill="#F5E1BE"/><path d="M68.108 23.977L85.595 4.982l4.6 4.506L70.23 27.327l-2.122-3.35z" fill="#3C1D19"/><path fill-rule="evenodd" clip-rule="evenodd" d="M58.77 69.047a1.724 1.724 0 013.446 0v5.677c0 2.458-2.02 4.472-4.528 4.472H29.8c-2.509 0-4.529-2.014-4.529-4.472v-5.677a1.724 1.724 0 013.447 0v5.677c0 .576.494 1.025 1.082 1.025h27.888c.587 0 1.081-.45 1.081-1.025v-5.677z" fill="#3C1D19"/><path fill-rule="evenodd" clip-rule="evenodd" d="M60.802 19.87a1.724 1.724 0 010-3.446h7.411c.722 0 1.367.449 1.617 1.126 0 0 1.92 5.195 3.014 11.356a1.724 1.724 0 01-3.394.602c-.738-4.16-1.873-7.856-2.464-9.638h-6.184z" fill="#3D1B14"/><path fill-rule="evenodd" clip-rule="evenodd" d="M51.025 14.654a1.724 1.724 0 010-3.446h7.777c.714 0 1.354.44 1.61 1.106 0 0 2.569 6.7 4.264 14.757a1.724 1.724 0 01-3.373.71c-1.23-5.85-2.938-10.959-3.706-13.126h-6.572z" fill="#3D1B14"/><path fill-rule="evenodd" clip-rule="evenodd" d="M40.65 5.681a1.724 1.724 0 01-.082-3.446s7.999-.373 12.02 10.094c1.034 2.691 3.456 10.86 4.375 14.695a1.724 1.724 0 01-3.352.803c-.891-3.72-3.237-11.65-4.24-14.262-3.012-7.84-8.721-7.884-8.721-7.884zM4.793 4.912a1.724 1.724 0 012.87-1.908s7.714 11.606 9.15 25.55a1.724 1.724 0 01-3.43.353c-1.348-13.096-8.59-23.995-8.59-23.995z" fill="#3D1B14"/><path fill-rule="evenodd" clip-rule="evenodd" d="M36.843 4.43a1.724 1.724 0 013.314-.944l2.204 7.734h7.371a1.724 1.724 0 010 3.447H41.06c-.77 0-1.447-.51-1.657-1.251l-2.56-8.986z" fill="#3D1B14"/><path fill-rule="evenodd" clip-rule="evenodd" d="M40.608 2.235a1.724 1.724 0 010 3.446H6.228a1.724 1.724 0 010-3.446h34.38z" fill="#3D1B14"/><path fill-rule="evenodd" clip-rule="evenodd" d="M96.735 20.035L69.392 35.456a34.739 34.739 0 00-4.467-1.544l29.148-18.855 2.662 4.978z" fill="#3C1D19"/><path fill-rule="evenodd" clip-rule="evenodd" d="M80.918 39.195l.006.008.018-.008 1.562-.85.07-2.443-.764-2.396-2.125-1.339-2.584-1.339-1.268.024.07 1.292L78.3 34.23l1.34 2.216 1.08 1.287.329.916-.13.545zM14.276 29.317l.01-.012-.02-.01-1.896-.769-3.39 1.701-2.937 2.406-.853 2.848-.638 3.254.622 1.105 1.602.204 1.895-4.826 2.423-2.785 1.267-1.886 1.106-.952.81-.278z" fill="#3C1D19"/></svg>